<?xml version="1.0" encoding="UTF-8"?>
<svg xmlns="http://www.w3.org/2000/svg" xmlns:xlink="http://www.w3.org/1999/xlink" viewBox="0 0 468 468" width="468px" height="468px">
<g id="surface168122">
<path style=" stroke:none;fill-rule:nonzero;fill:rgb(94.117647%,92.156863%,97.254902%);fill-opacity:1;" d="M 456.410156 247.417969 C 452.078125 238.8125 452.070312 228.632812 456.375 220.011719 C 472.351562 188.03125 472.023438 147.574219 452.089844 112.800781 C 430.222656 74.65625 390.683594 53.675781 351.710938 55.386719 C 341.792969 55.824219 332.222656 51.308594 326.214844 43.402344 C 306.378906 17.285156 272.40625 0.0664062 233.824219 0.0664062 C 195.152344 0.0664062 161.113281 17.367188 141.296875 43.582031 C 135.296875 51.519531 125.710938 56.058594 115.765625 55.65625 C 76.910156 54.082031 37.535156 75.054688 15.734375 113.085938 C -4.257812 147.960938 -4.53125 188.554688 11.589844 220.582031 C 15.921875 229.1875 15.929688 239.367188 11.625 247.988281 C -4.351562 279.96875 -4.023438 320.425781 15.910156 355.199219 C 37.777344 393.34375 77.320312 414.324219 116.289062 412.613281 C 126.207031 412.175781 135.777344 416.691406 141.785156 424.597656 C 161.621094 450.714844 195.59375 467.933594 234.175781 467.933594 C 272.847656 467.933594 306.886719 450.632812 326.703125 424.417969 C 332.703125 416.480469 342.289062 411.941406 352.234375 412.34375 C 391.089844 413.917969 430.464844 392.945312 452.265625 354.914062 C 472.261719 320.039062 472.53125 279.445312 456.410156 247.417969 Z M 456.410156 247.417969 "/>
<path style=" stroke:none;fill-rule:nonzero;fill:rgb(100%,72.549021%,70.19608%);fill-opacity:1;" d="M 415.628906 309.6875 L 423.375 311.332031 L 414.417969 313.871094 C 409.699219 315.207031 406.097656 319.027344 405.039062 323.816406 L 403.378906 331.324219 L 401.71875 323.816406 C 400.660156 319.027344 397.058594 315.207031 392.34375 313.871094 L 383.386719 311.332031 L 391.128906 309.6875 C 396.144531 308.625 400.105469 304.785156 401.316406 299.804688 L 403.378906 291.335938 L 405.441406 299.804688 C 406.65625 304.78125 410.617188 308.625 415.628906 309.6875 Z M 415.628906 309.6875 "/>
<path style=" stroke:none;fill-rule:nonzero;fill:rgb(78.431374%,93.333334%,97.254902%);fill-opacity:1;" d="M 191.292969 144.632812 C 191.292969 148.5 188.160156 151.632812 184.296875 151.632812 C 180.429688 151.632812 177.296875 148.5 177.296875 144.632812 C 177.296875 140.769531 180.429688 137.636719 184.296875 137.636719 C 188.160156 137.636719 191.292969 140.769531 191.292969 144.632812 Z M 191.292969 144.632812 "/>
<path style=" stroke:none;fill-rule:nonzero;fill:rgb(56.470591%,79.215688%,97.647059%);fill-opacity:1;" d="M 24.320312 213.484375 L 24.3125 414.691406 L 353.742188 414.691406 L 353.75 213.484375 C 353.753906 203.027344 345.273438 194.550781 334.8125 194.550781 L 43.257812 194.550781 C 32.800781 194.550781 24.320312 203.027344 24.320312 213.484375 Z M 24.320312 213.484375 "/>
<path style=" stroke:none;fill-rule:nonzero;fill:rgb(71.764708%,86.274511%,98.431373%);fill-opacity:1;" d="M 59.253906 194.550781 L 43.257812 194.550781 C 32.800781 194.550781 24.320312 203.027344 24.320312 213.484375 L 24.3125 414.691406 L 40.304688 414.691406 L 40.316406 213.484375 C 40.316406 203.027344 48.792969 194.550781 59.253906 194.550781 Z M 59.253906 194.550781 "/>
<path style=" stroke:none;fill-rule:nonzero;fill:rgb(100%,96.862745%,86.274511%);fill-opacity:1;" d="M 62.632812 232.417969 L 315.425781 232.417969 L 315.425781 414.6875 L 62.632812 414.6875 Z M 62.632812 232.417969 "/>
<path style=" stroke:none;fill-rule:nonzero;fill:rgb(100%,99.215686%,97.254902%);fill-opacity:1;" d="M 62.632812 232.417969 L 78.628906 232.417969 L 78.628906 414.6875 L 62.632812 414.6875 Z M 62.632812 232.417969 "/>
<path style=" stroke:none;fill-rule:nonzero;fill:rgb(56.470591%,79.215688%,97.647059%);fill-opacity:1;" d="M 5 414.691406 L 5 434.53125 C 5 450.21875 17.714844 462.933594 33.402344 462.933594 L 344.65625 462.933594 C 360.347656 462.933594 373.0625 450.214844 373.0625 434.53125 L 373.0625 414.691406 Z M 5 414.691406 "/>
<path style=" stroke:none;fill-rule:nonzero;fill:rgb(71.764708%,86.274511%,98.431373%);fill-opacity:1;" d="M 22.992188 434.53125 L 22.992188 414.691406 L 5 414.691406 L 5 434.53125 C 5 450.21875 17.714844 462.933594 33.402344 462.933594 L 51.398438 462.933594 C 35.710938 462.933594 22.992188 450.21875 22.992188 434.53125 Z M 22.992188 434.53125 "/>
<path style=" stroke:none;fill-rule:nonzero;fill:rgb(65.882355%,93.725491%,61.176473%);fill-opacity:1;" d="M 62.628906 308.113281 L 146.894531 308.113281 L 146.894531 414.730469 L 62.628906 414.730469 Z M 62.628906 308.113281 "/>
<path style=" stroke:none;fill-rule:nonzero;fill:rgb(87.450981%,97.647059%,85.09804%);fill-opacity:1;" d="M 62.628906 308.113281 L 78.625 308.113281 L 78.625 414.730469 L 62.628906 414.730469 Z M 62.628906 308.113281 "/>
<path style=" stroke:none;fill-rule:nonzero;fill:rgb(35.686275%,35.686275%,49.803922%);fill-opacity:1;" d="M 121.617188 384.195312 L 87.910156 384.195312 C 85.148438 384.195312 82.910156 381.957031 82.910156 379.195312 C 82.910156 376.433594 85.148438 374.195312 87.910156 374.195312 L 121.617188 374.195312 C 124.378906 374.195312 126.617188 376.433594 126.617188 379.195312 C 126.617188 381.957031 124.378906 384.195312 121.617188 384.195312 Z M 121.617188 384.195312 "/>
<path style=" stroke:none;fill-rule:nonzero;fill:rgb(35.686275%,35.686275%,49.803922%);fill-opacity:1;" d="M 121.617188 348.652344 L 87.910156 348.652344 C 85.148438 348.652344 82.910156 346.417969 82.910156 343.65625 C 82.910156 340.894531 85.148438 338.65625 87.910156 338.65625 L 121.617188 338.65625 C 124.378906 338.65625 126.617188 340.894531 126.617188 343.65625 C 126.617188 346.417969 124.378906 348.652344 121.617188 348.652344 Z M 121.617188 348.652344 "/>
<path style=" stroke:none;fill-rule:nonzero;fill:rgb(93.725491%,93.725491%,93.725491%);fill-opacity:1;" d="M 146.898438 308.113281 L 231.164062 308.113281 L 231.164062 414.730469 L 146.898438 414.730469 Z M 146.898438 308.113281 "/>
<path style=" stroke:none;fill-rule:nonzero;fill:rgb(100%,100%,100%);fill-opacity:1;" d="M 146.898438 308.113281 L 162.890625 308.113281 L 162.890625 414.730469 L 146.898438 414.730469 Z M 146.898438 308.113281 "/>
<path style=" stroke:none;fill-rule:nonzero;fill:rgb(35.686275%,35.686275%,49.803922%);fill-opacity:1;" d="M 205.882812 384.195312 L 172.175781 384.195312 C 169.417969 384.195312 167.179688 381.957031 167.179688 379.195312 C 167.179688 376.433594 169.417969 374.195312 172.175781 374.195312 L 205.882812 374.195312 C 208.644531 374.195312 210.882812 376.433594 210.882812 379.195312 C 210.882812 381.957031 208.644531 384.195312 205.882812 384.195312 Z M 205.882812 384.195312 "/>
<path style=" stroke:none;fill-rule:nonzero;fill:rgb(35.686275%,35.686275%,49.803922%);fill-opacity:1;" d="M 205.882812 348.652344 L 172.175781 348.652344 C 169.417969 348.652344 167.179688 346.417969 167.179688 343.65625 C 167.179688 340.894531 169.417969 338.65625 172.175781 338.65625 L 205.882812 338.65625 C 208.644531 338.65625 210.882812 340.894531 210.882812 343.65625 C 210.882812 346.417969 208.644531 348.652344 205.882812 348.652344 Z M 205.882812 348.652344 "/>
<path style=" stroke:none;fill-rule:nonzero;fill:rgb(65.882355%,93.725491%,61.176473%);fill-opacity:1;" d="M 231.164062 308.113281 L 315.429688 308.113281 L 315.429688 414.730469 L 231.164062 414.730469 Z M 231.164062 308.113281 "/>
<path style=" stroke:none;fill-rule:nonzero;fill:rgb(87.450981%,97.647059%,85.09804%);fill-opacity:1;" d="M 231.164062 308.113281 L 247.160156 308.113281 L 247.160156 414.730469 L 231.164062 414.730469 Z M 231.164062 308.113281 "/>
<path style=" stroke:none;fill-rule:nonzero;fill:rgb(35.686275%,35.686275%,49.803922%);fill-opacity:1;" d="M 290.152344 384.195312 L 256.445312 384.195312 C 253.683594 384.195312 251.445312 381.957031 251.445312 379.195312 C 251.445312 376.433594 253.683594 374.195312 256.445312 374.195312 L 290.152344 374.195312 C 292.914062 374.195312 295.152344 376.433594 295.152344 379.195312 C 295.152344 381.957031 292.914062 384.195312 290.152344 384.195312 Z M 290.152344 384.195312 "/>
<path style=" stroke:none;fill-rule:nonzero;fill:rgb(35.686275%,35.686275%,49.803922%);fill-opacity:1;" d="M 290.152344 348.652344 L 256.445312 348.652344 C 253.683594 348.652344 251.445312 346.417969 251.445312 343.65625 C 251.445312 340.894531 253.683594 338.65625 256.445312 338.65625 L 290.152344 338.65625 C 292.914062 338.65625 295.152344 340.894531 295.152344 343.65625 C 295.152344 346.417969 292.914062 348.652344 290.152344 348.652344 Z M 290.152344 348.652344 "/>
<path style=" stroke:none;fill-rule:nonzero;fill:rgb(93.725491%,93.725491%,93.725491%);fill-opacity:1;" d="M 228.972656 79.652344 L 462.996094 79.652344 L 462.996094 247.378906 L 228.972656 247.378906 Z M 228.972656 79.652344 "/>
<path style=" stroke:none;fill-rule:nonzero;fill:rgb(100%,100%,100%);fill-opacity:1;" d="M 228.972656 79.652344 L 244.96875 79.652344 L 244.96875 247.378906 L 228.972656 247.378906 Z M 228.972656 79.652344 "/>
<path style=" stroke:none;fill-rule:nonzero;fill:rgb(72.941178%,67.450982%,88.627452%);fill-opacity:1;" d="M 228.972656 29.226562 L 462.996094 29.226562 L 462.996094 79.652344 L 228.972656 79.652344 Z M 228.972656 29.226562 "/>
<path style=" stroke:none;fill-rule:nonzero;fill:rgb(81.960785%,76.862746%,93.333334%);fill-opacity:1;" d="M 228.972656 29.226562 L 244.96875 29.226562 L 244.96875 79.652344 L 228.972656 79.652344 Z M 228.972656 29.226562 "/>
<path style=" stroke:none;fill-rule:nonzero;fill:rgb(100%,96.862745%,86.274511%);fill-opacity:1;" d="M 279.464844 5.066406 C 271.195312 5.066406 264.496094 11.765625 264.496094 20.035156 L 264.496094 40.308594 C 264.496094 48.574219 271.195312 55.277344 279.460938 55.277344 C 287.730469 55.277344 294.429688 48.574219 294.429688 40.308594 L 294.429688 20.035156 C 294.433594 11.769531 287.730469 5.066406 279.464844 5.066406 Z M 279.464844 5.066406 "/>
<path style=" stroke:none;fill-rule:nonzero;fill:rgb(100%,99.215686%,97.254902%);fill-opacity:1;" d="M 279.492188 40.308594 L 279.492188 20.035156 C 279.492188 14.503906 282.5 9.683594 286.960938 7.09375 C 284.753906 5.8125 282.199219 5.066406 279.464844 5.066406 C 271.199219 5.066406 264.496094 11.765625 264.496094 20.035156 L 264.496094 40.308594 C 264.496094 48.574219 271.195312 55.277344 279.464844 55.277344 C 282.199219 55.277344 284.753906 54.53125 286.960938 53.25 C 282.5 50.660156 279.492188 45.839844 279.492188 40.308594 Z M 279.492188 40.308594 "/>
<path style=" stroke:none;fill-rule:nonzero;fill:rgb(100%,96.862745%,86.274511%);fill-opacity:1;" d="M 412.425781 5.066406 C 404.15625 5.066406 397.457031 11.765625 397.457031 20.035156 L 397.457031 40.308594 C 397.457031 48.574219 404.15625 55.277344 412.421875 55.277344 C 420.691406 55.277344 427.390625 48.574219 427.390625 40.308594 L 427.390625 20.035156 C 427.394531 11.769531 420.691406 5.066406 412.425781 5.066406 Z M 412.425781 5.066406 "/>
<path style=" stroke:none;fill-rule:nonzero;fill:rgb(100%,99.215686%,97.254902%);fill-opacity:1;" d="M 412.453125 40.308594 L 412.453125 20.035156 C 412.453125 14.503906 415.460938 9.683594 419.921875 7.09375 C 417.714844 5.8125 415.160156 5.066406 412.425781 5.066406 C 404.160156 5.066406 397.457031 11.765625 397.457031 20.035156 L 397.457031 40.308594 C 397.457031 48.574219 404.15625 55.277344 412.425781 55.277344 C 415.160156 55.277344 417.714844 54.53125 419.921875 53.25 C 415.460938 50.660156 412.453125 45.839844 412.453125 40.308594 Z M 412.453125 40.308594 "/>
<path style=" stroke:none;fill-rule:nonzero;fill:rgb(100%,54.11765%,50.196081%);fill-opacity:1;" d="M 262.828125 113.617188 L 296.089844 113.617188 L 296.089844 147.089844 L 262.828125 147.089844 Z M 262.828125 113.617188 "/>
<path style=" stroke:none;fill-rule:nonzero;fill:rgb(100%,65.882355%,64.313728%);fill-opacity:1;" d="M 262.828125 113.617188 L 277.824219 113.617188 L 277.824219 147.089844 L 262.828125 147.089844 Z M 262.828125 113.617188 "/>
<path style=" stroke:none;fill-rule:nonzero;fill:rgb(35.686275%,35.686275%,49.803922%);fill-opacity:1;" d="M 296.09375 152.089844 L 262.832031 152.089844 C 260.070312 152.089844 257.832031 149.851562 257.832031 147.089844 L 257.832031 113.617188 C 257.832031 110.855469 260.070312 108.617188 262.832031 108.617188 L 296.09375 108.617188 C 298.855469 108.617188 301.09375 110.855469 301.09375 113.617188 L 301.09375 147.089844 C 301.09375 149.851562 298.855469 152.089844 296.09375 152.089844 Z M 267.832031 142.089844 L 291.097656 142.089844 L 291.097656 118.617188 L 267.832031 118.617188 Z M 267.832031 142.089844 "/>
<path style=" stroke:none;fill-rule:nonzero;fill:rgb(65.882355%,93.725491%,61.176473%);fill-opacity:1;" d="M 329.351562 113.617188 L 362.617188 113.617188 L 362.617188 147.089844 L 329.351562 147.089844 Z M 329.351562 113.617188 "/>
<path style=" stroke:none;fill-rule:nonzero;fill:rgb(87.450981%,97.647059%,85.09804%);fill-opacity:1;" d="M 329.351562 113.617188 L 344.347656 113.617188 L 344.347656 147.089844 L 329.351562 147.089844 Z M 329.351562 113.617188 "/>
<path style=" stroke:none;fill-rule:nonzero;fill:rgb(35.686275%,35.686275%,49.803922%);fill-opacity:1;" d="M 362.621094 152.089844 L 329.359375 152.089844 C 326.597656 152.089844 324.359375 149.851562 324.359375 147.089844 L 324.359375 113.617188 C 324.359375 110.855469 326.597656 108.617188 329.359375 108.617188 L 362.621094 108.617188 C 365.378906 108.617188 367.617188 110.855469 367.617188 113.617188 L 367.617188 147.089844 C 367.617188 149.851562 365.378906 152.089844 362.621094 152.089844 Z M 334.355469 142.089844 L 357.621094 142.089844 L 357.621094 118.617188 L 334.355469 118.617188 Z M 334.355469 142.089844 "/>
<path style=" stroke:none;fill-rule:nonzero;fill:rgb(100%,96.862745%,86.274511%);fill-opacity:1;" d="M 395.878906 113.617188 L 429.140625 113.617188 L 429.140625 147.089844 L 395.878906 147.089844 Z M 395.878906 113.617188 "/>
<path style=" stroke:none;fill-rule:nonzero;fill:rgb(100%,99.215686%,97.254902%);fill-opacity:1;" d="M 395.878906 113.617188 L 410.875 113.617188 L 410.875 147.089844 L 395.878906 147.089844 Z M 395.878906 113.617188 "/>
<path style=" stroke:none;fill-rule:nonzero;fill:rgb(35.686275%,35.686275%,49.803922%);fill-opacity:1;" d="M 429.144531 152.089844 L 395.882812 152.089844 C 393.121094 152.089844 390.882812 149.851562 390.882812 147.089844 L 390.882812 113.617188 C 390.882812 110.855469 393.121094 108.617188 395.882812 108.617188 L 429.144531 108.617188 C 431.90625 108.617188 434.144531 110.855469 434.144531 113.617188 L 434.144531 147.089844 C 434.144531 149.851562 431.90625 152.089844 429.144531 152.089844 Z M 400.878906 142.089844 L 424.144531 142.089844 L 424.144531 118.617188 L 400.878906 118.617188 Z M 400.878906 142.089844 "/>
<path style=" stroke:none;fill-rule:nonzero;fill:rgb(65.882355%,93.725491%,61.176473%);fill-opacity:1;" d="M 262.828125 180.59375 L 296.089844 180.59375 L 296.089844 214.066406 L 262.828125 214.066406 Z M 262.828125 180.59375 "/>
<path style=" stroke:none;fill-rule:nonzero;fill:rgb(87.450981%,97.647059%,85.09804%);fill-opacity:1;" d="M 262.828125 180.59375 L 277.824219 180.59375 L 277.824219 214.066406 L 262.828125 214.066406 Z M 262.828125 180.59375 "/>
<path style=" stroke:none;fill-rule:nonzero;fill:rgb(35.686275%,35.686275%,49.803922%);fill-opacity:1;" d="M 296.09375 219.070312 L 262.832031 219.070312 C 260.070312 219.070312 257.832031 216.832031 257.832031 214.070312 L 257.832031 180.597656 C 257.832031 177.835938 260.070312 175.597656 262.832031 175.597656 L 296.09375 175.597656 C 298.855469 175.597656 301.09375 177.835938 301.09375 180.597656 L 301.09375 214.070312 C 301.09375 216.832031 298.855469 219.070312 296.09375 219.070312 Z M 267.832031 209.070312 L 291.097656 209.070312 L 291.097656 185.59375 L 267.832031 185.59375 Z M 267.832031 209.070312 "/>
<path style=" stroke:none;fill-rule:nonzero;fill:rgb(100%,96.862745%,86.274511%);fill-opacity:1;" d="M 329.351562 180.59375 L 362.617188 180.59375 L 362.617188 214.066406 L 329.351562 214.066406 Z M 329.351562 180.59375 "/>
<path style=" stroke:none;fill-rule:nonzero;fill:rgb(100%,99.215686%,97.254902%);fill-opacity:1;" d="M 329.351562 180.59375 L 344.347656 180.59375 L 344.347656 214.066406 L 329.351562 214.066406 Z M 329.351562 180.59375 "/>
<path style=" stroke:none;fill-rule:nonzero;fill:rgb(35.686275%,35.686275%,49.803922%);fill-opacity:1;" d="M 362.621094 219.070312 L 329.359375 219.070312 C 326.597656 219.070312 324.359375 216.832031 324.359375 214.070312 L 324.359375 180.597656 C 324.359375 177.835938 326.597656 175.597656 329.359375 175.597656 L 362.621094 175.597656 C 365.378906 175.597656 367.617188 177.835938 367.617188 180.597656 L 367.617188 214.070312 C 367.617188 216.832031 365.378906 219.070312 362.621094 219.070312 Z M 334.355469 209.070312 L 357.621094 209.070312 L 357.621094 185.59375 L 334.355469 185.59375 Z M 334.355469 209.070312 "/>
<path style=" stroke:none;fill-rule:nonzero;fill:rgb(100%,54.11765%,50.196081%);fill-opacity:1;" d="M 395.878906 180.59375 L 429.140625 180.59375 L 429.140625 214.066406 L 395.878906 214.066406 Z M 395.878906 180.59375 "/>
<path style=" stroke:none;fill-rule:nonzero;fill:rgb(100%,65.882355%,64.313728%);fill-opacity:1;" d="M 395.878906 180.59375 L 410.875 180.59375 L 410.875 214.066406 L 395.878906 214.066406 Z M 395.878906 180.59375 "/>
<path style=" stroke:none;fill-rule:nonzero;fill:rgb(35.686275%,35.686275%,49.803922%);fill-opacity:1;" d="M 429.144531 219.070312 L 395.882812 219.070312 C 393.121094 219.070312 390.882812 216.832031 390.882812 214.070312 L 390.882812 180.597656 C 390.882812 177.835938 393.121094 175.597656 395.882812 175.597656 L 429.144531 175.597656 C 431.90625 175.597656 434.144531 177.835938 434.144531 180.597656 L 434.144531 214.070312 C 434.144531 216.832031 431.90625 219.070312 429.144531 219.070312 Z M 400.878906 209.070312 L 424.144531 209.070312 L 424.144531 185.59375 L 400.878906 185.59375 Z M 400.878906 209.070312 "/>
<path style=" stroke:none;fill-rule:nonzero;fill:rgb(53.333336%,91.764706%,56.078434%);fill-opacity:1;" d="M 169.742188 79.652344 C 169.742188 115.542969 140.648438 144.632812 104.761719 144.632812 C 68.875 144.632812 39.78125 115.542969 39.78125 79.652344 C 39.78125 43.765625 68.875 14.671875 104.761719 14.671875 C 140.648438 14.671875 169.742188 43.765625 169.742188 79.652344 Z M 169.742188 79.652344 "/>
<path style=" stroke:none;fill-rule:nonzero;fill:rgb(41.960785%,79.607844%,45.490196%);fill-opacity:1;" d="M 57.777344 79.65625 C 57.777344 46.820312 82.132812 19.691406 113.761719 15.308594 C 110.820312 14.902344 107.816406 14.671875 104.761719 14.671875 C 68.875 14.671875 39.78125 43.765625 39.78125 79.65625 C 39.78125 115.542969 68.875 144.636719 104.761719 144.636719 C 107.816406 144.636719 110.820312 144.410156 113.761719 144 C 82.132812 139.617188 57.777344 112.488281 57.777344 79.65625 Z M 57.777344 79.65625 "/>
<path style=" stroke:none;fill-rule:nonzero;fill:rgb(35.686275%,35.686275%,49.803922%);fill-opacity:1;" d="M 194.898438 443.746094 L 173.695312 443.746094 C 170.9375 443.746094 168.699219 441.507812 168.699219 438.746094 C 168.699219 435.984375 170.9375 433.746094 173.695312 433.746094 L 194.898438 433.746094 C 197.65625 433.746094 199.894531 435.984375 199.894531 438.746094 C 199.894531 441.507812 197.65625 443.746094 194.898438 443.746094 Z M 194.898438 443.746094 "/>
<path style=" stroke:none;fill-rule:nonzero;fill:rgb(35.686275%,35.686275%,49.803922%);fill-opacity:1;" d="M 256.832031 278.125 L 121.230469 278.125 C 118.46875 278.125 116.230469 275.890625 116.230469 273.128906 C 116.230469 270.367188 118.46875 268.128906 121.230469 268.128906 L 256.832031 268.128906 C 259.59375 268.128906 261.832031 270.367188 261.832031 273.128906 C 261.832031 275.890625 259.59375 278.125 256.832031 278.125 Z M 256.832031 278.125 "/>
<path style=" stroke:none;fill-rule:nonzero;fill:rgb(35.686275%,35.686275%,49.803922%);fill-opacity:1;" d="M 463 24.226562 L 432.390625 24.226562 L 432.390625 20.035156 C 432.390625 9.023438 423.433594 0.0664062 412.425781 0.0664062 C 401.414062 0.0664062 392.457031 9.023438 392.457031 20.035156 L 392.457031 24.226562 L 299.429688 24.226562 L 299.429688 20.035156 C 299.429688 9.023438 290.472656 0.0664062 279.464844 0.0664062 C 268.453125 0.0664062 259.496094 9.023438 259.496094 20.035156 L 259.496094 24.226562 L 228.976562 24.226562 C 226.214844 24.226562 223.976562 26.464844 223.976562 29.226562 L 223.976562 189.550781 L 43.257812 189.550781 C 30.058594 189.550781 19.324219 200.285156 19.324219 213.484375 L 19.3125 409.691406 L 5 409.691406 C 2.238281 409.691406 0 411.929688 0 414.691406 L 0 434.53125 C 0 452.949219 14.984375 467.929688 33.402344 467.929688 L 344.65625 467.929688 C 363.078125 467.929688 378.0625 452.949219 378.0625 434.53125 L 378.0625 414.691406 C 378.0625 411.929688 375.824219 409.691406 373.0625 409.691406 L 358.738281 409.691406 L 358.746094 252.378906 L 463 252.378906 C 465.761719 252.378906 468 250.140625 468 247.378906 L 468 29.226562 C 468 26.464844 465.761719 24.226562 463 24.226562 Z M 402.457031 20.035156 C 402.457031 14.539062 406.929688 10.066406 412.425781 10.066406 C 417.921875 10.066406 422.394531 14.539062 422.394531 20.035156 L 422.394531 40.308594 C 422.394531 45.804688 417.921875 50.277344 412.425781 50.277344 C 406.925781 50.277344 402.457031 45.804688 402.457031 40.308594 Z M 269.492188 20.035156 C 269.492188 14.539062 273.96875 10.066406 279.464844 10.066406 C 284.960938 10.066406 289.433594 14.539062 289.433594 20.035156 L 289.433594 40.308594 C 289.433594 45.804688 284.960938 50.277344 279.464844 50.277344 C 273.964844 50.277344 269.492188 45.804688 269.492188 40.308594 Z M 228.976562 252.378906 L 310.433594 252.378906 L 310.433594 303.117188 L 67.632812 303.117188 L 67.636719 237.417969 L 223.976562 237.417969 L 223.976562 247.378906 C 223.976562 250.140625 226.214844 252.378906 228.976562 252.378906 Z M 310.433594 313.113281 L 310.429688 409.691406 L 236.164062 409.691406 L 236.164062 313.113281 Z M 226.167969 313.113281 L 226.167969 409.691406 L 151.894531 409.691406 L 151.894531 313.113281 Z M 141.898438 313.113281 L 141.898438 409.691406 L 67.628906 409.691406 L 67.632812 313.113281 Z M 29.320312 213.484375 C 29.320312 205.796875 35.574219 199.546875 43.257812 199.546875 L 223.976562 199.546875 L 223.976562 227.421875 L 62.636719 227.421875 C 59.878906 227.421875 57.640625 229.660156 57.640625 232.421875 L 57.632812 409.691406 L 29.308594 409.691406 Z M 368.066406 419.6875 L 368.066406 434.53125 C 368.066406 447.4375 357.566406 457.933594 344.65625 457.933594 L 33.402344 457.933594 C 20.496094 457.933594 9.996094 447.4375 9.996094 434.53125 L 9.996094 419.6875 Z M 320.429688 409.691406 L 320.429688 252.378906 L 348.75 252.378906 L 348.742188 409.691406 Z M 458.003906 242.382812 L 233.972656 242.382812 L 233.972656 84.652344 L 458 84.652344 L 458 242.382812 Z M 458.003906 74.65625 L 233.972656 74.65625 L 233.972656 34.222656 L 259.496094 34.222656 L 259.496094 40.308594 C 259.496094 51.320312 268.453125 60.273438 279.460938 60.273438 C 290.472656 60.273438 299.429688 51.320312 299.429688 40.308594 L 299.429688 34.222656 L 392.457031 34.222656 L 392.457031 40.308594 C 392.457031 51.320312 401.414062 60.273438 412.421875 60.273438 C 423.433594 60.273438 432.390625 51.320312 432.390625 40.308594 L 432.390625 34.222656 L 458 34.222656 L 458 74.65625 Z M 458.003906 74.65625 "/>
<path style=" stroke:none;fill-rule:nonzero;fill:rgb(59.215689%,58.431375%,68.627453%);fill-opacity:1;" d="M 104.761719 149.636719 C 66.175781 149.636719 34.785156 118.242188 34.785156 79.65625 C 34.785156 41.070312 66.175781 9.675781 104.761719 9.675781 C 143.351562 9.675781 174.742188 41.070312 174.742188 79.65625 C 174.742188 118.242188 143.351562 149.636719 104.761719 149.636719 Z M 104.761719 19.671875 C 71.6875 19.671875 44.78125 46.582031 44.78125 79.65625 C 44.78125 112.730469 71.6875 139.636719 104.761719 139.636719 C 137.835938 139.636719 164.746094 112.730469 164.746094 79.65625 C 164.746094 46.582031 137.835938 19.671875 104.761719 19.671875 Z M 104.761719 19.671875 "/>
<path style=" stroke:none;fill-rule:nonzero;fill:rgb(59.215689%,58.431375%,68.627453%);fill-opacity:1;" d="M 119.960938 102.847656 C 118.53125 102.847656 117.109375 102.238281 116.121094 101.054688 L 100.925781 82.859375 C 100.175781 81.960938 99.765625 80.828125 99.765625 79.65625 L 99.765625 44.214844 C 99.765625 41.453125 102.003906 39.214844 104.765625 39.214844 C 107.523438 39.214844 109.761719 41.453125 109.761719 44.214844 L 109.761719 77.84375 L 123.796875 94.644531 C 126.558594 97.734375 124.039062 102.980469 119.960938 102.847656 Z M 119.960938 102.847656 "/>
</g>
</svg>
